<svg width="576" height="512" viewBox="0 0 576 512" fill="none" xmlns="http://www.w3.org/2000/svg">
<path d="M9.3999 86.6C-3.1001 74.1 -3.1001 53.9 9.3999 41.4C21.8999 28.9 42.1999 28.9 54.6999 41.4L246.7 233.4C259.2 245.9 259.2 266.2 246.7 278.7L54.6999 470.7C42.1999 483.2 21.8999 483.2 9.3999 470.7C-3.1001 458.2 -3.1001 437.9 9.3999 425.4L178.7 256L9.3999 86.6ZM256 416H544C561.7 416 576 430.3 576 448C576 465.7 561.7 480 544 480H256C238.3 480 224 465.7 224 448C224 430.3 238.3 416 256 416Z" fill="white"/>
</svg>
