<svg width="30" height="25" viewBox="0 0 30 25" fill="none" xmlns="http://www.w3.org/2000/svg">
<mask id="mask0_15_26" style="mask-type:luminance" maskUnits="userSpaceOnUse" x="0" y="0" width="30" height="25">
<path d="M0 0H30V24.545H0V0Z" fill="white"/>
</mask>
<g mask="url(#mask0_15_26)">
<path d="M26.8488 6.17128C26.8676 6.43253 26.8676 6.69378 26.8676 6.95628C26.8676 14.9863 20.7213 24.2463 9.48509 24.2463V24.2413C6.1676 24.2462 2.91815 23.3005 0.121338 21.5163C3.34946 21.9038 6.59978 20.9983 9.16259 18.9975C7.89051 18.9758 6.65693 18.5576 5.63382 17.8014C4.61071 17.0451 3.84907 15.9885 3.45509 14.7788C4.37009 14.9538 5.31384 14.9188 6.21259 14.6738C4.83365 14.4 3.59205 13.6572 2.69878 12.5716C1.80552 11.486 1.31571 10.1246 1.31259 8.71878V8.64128C2.16259 9.11128 3.11259 9.37253 4.08509 9.40128C2.79332 8.54647 1.87766 7.22972 1.52598 5.72118C1.1743 4.21264 1.41326 2.62672 2.19384 1.28878C3.73218 3.16831 5.64759 4.70433 7.81639 5.79767C9.9852 6.89101 12.3592 7.51736 14.7851 7.63628C14.5434 6.59871 14.5796 5.51576 14.8899 4.49662C15.2002 3.47747 15.7737 2.55813 16.5526 1.83128C17.7365 0.72615 19.3091 0.133627 20.9279 0.182795C22.5467 0.231963 24.0805 0.918837 25.1951 2.09378C26.5626 1.82586 27.8746 1.32752 29.0751 0.620034C28.6175 2.02979 27.6627 3.22494 26.3888 3.98253C27.5997 3.84048 28.7824 3.51772 29.8976 3.02503C29.0767 4.24724 28.0443 5.31312 26.8488 6.17253V6.17128Z" fill="white"/>
</g>
</svg>
